# xmcd
# 
# Track frame offsets:
#     150
#     23134
#     45944
#     69591
#     84626
#     109628
#     133304
#     162032
#     177385
#     200617
#     219323
#     249036
#     271443
#     292574
# 
# Disc length: 4084
# 
# Revision: 2
# Processed by: cddbd v1.5.2PL0 Copyright (c) Steve Scherf et al.
# Submitted via: fre:ac v1.0.17
# 
DISCID=ba0ff20e
DTITLE=Nils Wülker - Turning the Page
DYEAR=2008
DGENRE=Jazz
TTITLE0=Uphill
TTITLE1=Turning the Page
TTITLE2=The One Detail
TTITLE3=I Couldn´t Miss You If I Tried
TTITLE4=A Life In A Day
TTITLE5=The Page Turner
TTITLE6=On and On
TTITLE7=On and Gone
TTITLE8=Ideal Situation
TTITLE9=Without You
TTITLE10=Hindsight
TTITLE11=Looking Up
TTITLE12=Glow
TTITLE13=Downhill
EXTD=YEAR: 2008
EXTT0=
EXTT1=
EXTT2=
EXTT3=
EXTT4=
EXTT5=
EXTT6=
EXTT7=
EXTT8=
EXTT9=
EXTT10=
EXTT11=
EXTT12=
EXTT13=
PLAYORDER=
